# xmcd
#
# Track frame offsets: 
#        150
#        11229
#        23908
#        48186
#        66488
#        83247
#        99217
#        117404
#        135092
#        155701
#        172006
#        191082
#        208527
#        225418
#        244948
#        264574
#
# Disc length: 3751 seconds
#
# Revision: 2
# Processed by: cddbd v1.5.2PL0 Copyright (c) Steve Scherf et al.
# Submitted via: ExactAudioCopyFreeDBPlugin 1.0
#
DISCID=d70ea510
DTITLE=Boba Fettt - Meisters des Universums
DYEAR=2007
DGENRE=Rap
TTITLE0=Feuer in den Augen
TTITLE1=Die Ankunft
TTITLE2=Meisters des Universums feat. Prinz Pi
TTITLE3=Uns ist der Sieg feat. Riddlore? and Rifleman
TTITLE4=Bis ez knallt feat. Mr. Lex
TTITLE5=Quetschkommode feat. K.I.Z.
TTITLE6=Für immer
TTITLE7=Los! feat. Wakka and Shiranu
TTITLE8=Wir ham alles feat. Fuat
TTITLE9=Der Auftakt feat. Jack Orsen
TTITLE10=World Wide Party feat. Nga Fish, Big Derill Mack and Rifleman
TTITLE11=Westliche Bräuche feat. Justus and B-A-Di
TTITLE12=Guter Mensch
TTITLE13=Kreislauf feat. HFX (Gris, Meyah Don and Estess)
TTITLE14=Last Time feat. Rifleman and Battle Rapp
TTITLE15=Lichtsturm
EXTD=YEAR: 2007
EXTT0=
EXTT1=
EXTT2=
EXTT3=
EXTT4=
EXTT5=
EXTT6=
EXTT7=
EXTT8=
EXTT9=
EXTT10=
EXTT11=
EXTT12=
EXTT13=
EXTT14=
EXTT15=
PLAYORDER=
